#N canvas 0 528 1375 435 10;
#X obj 163 35 gendy-gui;
#X obj 222 322 *~ 0;
#X obj 667 315 *~ 0;
#X obj 1118 105 vsl 15 128 0 1 0 0 empty empty empty 0 -9 0 10 -262144
-1 -1 0 1;
#X obj 547 393 dac~;
#X obj 688 275 hip~ 20;
#X obj 207 277 hip~ 20;
#X obj 674 38 gendy-gui;
#X connect 0 0 6 0;
#X connect 0 1 7 0;
#X connect 1 0 4 0;
#X connect 2 0 4 1;
#X connect 3 0 2 1;
#X connect 3 0 1 1;
#X connect 5 0 2 0;
#X connect 6 0 1 0;
#X connect 7 0 5 0;
