#N canvas 374 166 999 740 10;
#X obj 719 352 gendy~;
#X msg 27 457 h_pull \$1;
#X obj 707 406 dac~;
#X obj 719 378 *~ 0.1;
#X obj 30 438 hsl 128 15 0 1 0 0 empty empty empty -2 -8 0 10 -262144
-1 -1 12700 1;
#X obj 236 443 hsl 128 15 0 1 0 0 empty empty empty -2 -8 0 10 -262144
-1 -1 12700 1;
#X msg 233 462 v_pull \$1;
#X obj 238 254 hsl 128 15 0 1 0 0 empty empty empty -2 -8 0 10 -262144
-1 -1 9300 1;
#X msg 235 273 v_step \$1;
#X obj 29 255 hsl 128 15 0 1 0 0 empty empty empty -2 -8 0 10 -262144
-1 -1 10600 1;
#X msg 26 274 h_step \$1;
#X obj 28 77 hsl 128 15 20 10000 1 0 empty empty empty -2 -8 0 10 -262144
-1 -1 7300 1;
#X msg 25 115 freq \$1;
#X msg 239 123 breakpoints \$1;
#N canvas 0 0 450 300 (subpatch) 0;
#X array gendygraph 1024 float 2;
#X coords 0 1 1023 -1 200 140 1;
#X restore 686 146 graph;
#X msg 449 487 redraw;
#X msg 37 610 linear;
#X msg 28 589 cubic;
#X msg 250 627 sine;
#X msg 263 648 square;
#X msg 239 606 flat;
#X obj 449 466 metro 75;
#X obj 449 447 tgl 15 0 empty empty empty 17 7 0 10 -262144 -1 -1 1
1;
#X floatatom 25 97 5 0 0 0 - - -;
#X obj 25 137 s gendy_con;
#X obj 26 295 s gendy_con;
#X obj 235 294 s gendy_con;
#X obj 27 478 s gendy_con;
#X obj 233 483 s gendy_con;
#X obj 448 190 s gendy_con;
#X obj 449 508 s gendy_con;
#X obj 239 671 s gendy_con;
#X obj 28 632 s gendy_con;
#X obj 719 326 r gendy_con;
#X obj 448 145 loadbang;
#X obj 239 145 s gendy_con;
#X text 677 456 gendy~;
#X text 676 481 A Dynamic Stochastic Synthesis external;
#X text 22 21 freq N;
#X text 22 43 Sets the average waveform;
#X text 22 56 frequency to N;
#X text 26 185 h_step N;
#X text 26 208 Varies the horizontal;
#X text 25 223 stepsize of the;
#X text 26 236 breakpoints (0-1);
#X text 233 219 stepsize of the;
#X text 235 232 breakpoints (0-1);
#X text 235 184 v_step N;
#X text 235 207 Varies the vertical;
#X text 24 345 h_pull N;
#X text 24 368 Varies how strongly;
#X text 24 392 pulled towards its;
#X text 24 380 each breakpoint is;
#X text 24 405 center point;
#X text 25 417 horizontally;
#X text 231 345 h_pull N;
#X text 231 368 Varies how strongly;
#X text 231 392 pulled towards its;
#X text 231 380 each breakpoint is;
#X text 231 405 center point;
#X text 232 417 vertically;
#X text 25 521 cubic \, linear;
#X text 24 544 Sets the interpolation;
#X text 25 556 method;
#X text 231 527 flat \, sine \, square;
#X text 230 550 Sets the waveshape;
#X text 230 562 that the breakpoints;
#X text 230 575 gravitate towards;
#X text 236 27 breakpoints N;
#X text 236 49 Sets the number of;
#X text 236 62 breakpoints;
#X text 445 81 table NAME;
#X text 446 102 Selects a table to;
#X text 446 114 display the waveform;
#X text 446 339 redraw;
#X text 447 361 Refreshes the waveform;
#X text 446 374 display;
#X obj 449 401 loadbang;
#X msg 449 421 1;
#X text 676 506 This synthesizer creates a waveform by;
#X text 676 518 interpolating a series of breakpoints \,;
#X text 676 531 each of which moves in a 2-dimensional;
#X text 676 543 random walk;
#X obj 239 83 hradio 15 1 0 10 empty empty empty 0 -8 0 10 -262144
-1 -1 6;
#X obj 239 102 + 1;
#X msg 448 168 table gendygraph;
#X connect 0 0 3 0;
#X connect 1 0 27 0;
#X connect 3 0 2 0;
#X connect 3 0 2 1;
#X connect 4 0 1 0;
#X connect 5 0 6 0;
#X connect 6 0 28 0;
#X connect 7 0 8 0;
#X connect 8 0 26 0;
#X connect 9 0 10 0;
#X connect 10 0 25 0;
#X connect 11 0 23 0;
#X connect 12 0 24 0;
#X connect 13 0 35 0;
#X connect 15 0 30 0;
#X connect 16 0 32 0;
#X connect 17 0 32 0;
#X connect 18 0 31 0;
#X connect 19 0 31 0;
#X connect 20 0 31 0;
#X connect 21 0 15 0;
#X connect 22 0 21 0;
#X connect 23 0 12 0;
#X connect 33 0 0 0;
#X connect 34 0 85 0;
#X connect 77 0 78 0;
#X connect 78 0 22 0;
#X connect 83 0 84 0;
#X connect 84 0 13 0;
#X connect 85 0 29 0;
