#N canvas 560 0 815 963 10;
#X obj 27 762 gendy~;
#X obj 282 219 hsl 128 15 50 2000 1 0 \$0-freq empty Freq -2 -8 0 10
-262144 -1 -1 0 1;
#X msg 117 620 h_pull \$1;
#X msg 296 620 v_pull \$1;
#X obj 63 87 hsl 128 15 0 1 0 0 \$0-h_pull empty h_pull -2 -8 0 10
-262144 -1 -1 0 1;
#X obj 64 122 hsl 128 15 0 1 0 0 \$0-v_pull empty v_pull -2 -8 0 10
-262144 -1 -1 0 1;
#X obj 66 158 hsl 128 15 0 1 0 0 \$0-h_step empty h_step -2 -8 0 10
-262144 -1 -1 0 1;
#X obj 65 193 hsl 128 15 0 1 0 0 \$0-v_step empty v_step -2 -8 0 10
-262144 -1 -1 0 1;
#X msg 208 621 h_step \$1;
#X msg 394 620 v_step \$1;
#X msg 570 616 breakpoints \$1;
#X floatatom 216 227 5 0 0 0 - #0-breakpoints -;
#N canvas 0 0 450 300 (subpatch) 0;
#X array \$0-waveform 2000 float 2;
#X coords 0 1 2000 -1 150 100 1;
#X restore 271 74 graph;
#X obj 61 226 hradio 15 1 0 10 empty \$0-breakpoints Breakpoints 0
-8 0 10 -262144 -1 -1 0;
#X obj 117 593 r \$0-h_pull;
#X obj 208 595 r \$0-h_step;
#X obj 296 592 r \$0-v_pull;
#X obj 394 593 r \$0-v_step;
#X obj 489 594 r \$0-freq;
#X obj 570 592 r \$0-breakpoints;
#X obj 26 795 outlet~;
#X obj 24 473 inlet;
#X obj 242 797 outlet;
#X msg 489 621 freq \$1;
#X obj 120 450 loadbang;
#X msg 120 506 display \$1-waveform;
#X obj 120 476 f \$0;
#X obj 309 179 tgl 15 0 \$0-display empty Display 20 7 0 10 -262144
-1 -1 0 1;
#X obj 701 592 r \$0-display;
#X msg 701 614 display \$1;
#X connect 0 0 20 0;
#X connect 2 0 0 0;
#X connect 2 0 22 0;
#X connect 3 0 0 0;
#X connect 3 0 22 0;
#X connect 8 0 0 0;
#X connect 8 0 22 0;
#X connect 9 0 0 0;
#X connect 9 0 22 0;
#X connect 10 0 0 0;
#X connect 10 0 22 0;
#X connect 14 0 2 0;
#X connect 15 0 8 0;
#X connect 16 0 3 0;
#X connect 17 0 9 0;
#X connect 18 0 23 0;
#X connect 19 0 10 0;
#X connect 21 0 0 0;
#X connect 23 0 22 0;
#X connect 23 0 0 0;
#X connect 24 0 26 0;
#X connect 25 0 0 0;
#X connect 26 0 25 0;
#X connect 28 0 29 0;
#X connect 29 0 22 0;
#X connect 29 0 0 0;
#X coords 0 -1 1 1 400 200 1 50 50;
