#N canvas 4 278 1369 435 10;
#X obj 163 35 gendy-gui;
#X obj 547 393 dac~;
#X obj 674 275 *~ 0.3;
#X obj 164 267 *~ 0.3;
#X obj 673 32 gendy-gui;
#X connect 0 0 3 0;
#X connect 0 1 4 0;
#X connect 2 0 1 1;
#X connect 3 0 1 0;
#X connect 4 0 2 0;
